<svg xmlns="http://www.w3.org/2000/svg" xml:space="preserve" viewBox="0 0 1024 768"><path fill="#dfdcd3" d="M0 0h1024v768H0z"/><g transform="translate(0 2.01)"><path fill="#a7a29a" d="M410 521.88q-1.48 0-2.6 3.68-1.1 3.64-1.1 6.47 0 5.94 3.1 5.94.87 0 1.52-.74.67-.78.94-1.59.3-.8.7-2.22l4.3.33q-.89 4.15-2.64 6.34-1.72 2.2-4.82 2.2-3.65 0-5.64-2.74-1.95-2.76-1.95-7.01 0-4.96 1.95-9.65.95-2.33 2.64-3.81 1.72-1.52 3.9-1.52 2.7 0 3.92 1.79.6.88.98 1.79.4.9.57 2.32.3 2.26.37 4.86l-4.35-.4q0-4.35-.8-5.47-.38-.57-.99-.57zm11.95 13.32q0 3.81 1.69 3.81.74 0 1.25-2.12.5-2.16.5-4.12 0-4.31-1.42-4.31-.9 0-1.48 2.32-.54 2.3-.54 4.42zm-3.95-.3q0-3.14 1.29-6.14.67-1.52 1.89-2.46 1.24-.98 2.76-.98 1.52 0 2.6.7 1.11.68 1.68 1.83 1.12 2.26 1.12 4.92 0 3.68-1.52 6.55-1.48 2.83-4.18 2.83-5.64 0-5.64-7.25zm20.75-8.67q2.06 0 3.14 1.42 1.76-2.57 3.48-2.57 4.68 0 4.68 7.05 0 3.98-.67 9.65l-3.91-.34q.64-6.3.64-9.61 0-3.3-1.08-3.3-.47 0-1.11 1.51-.65 1.52-.85 3.38-.07 4.21-.27 7.52l-3.94-.37q.27-4.76.27-7.83 0-3.07-.85-3.07-.54 0-1.41 1.89-.85 1.86-1.22 3.91.04 3.1.3 6.41l-3.94-.37q-.37-4.76-.37-8.67t.2-7.32l2.8.2q.2.92.57 3.31 1.8-2.8 3.54-2.8zm25.44-.78-.06 5.33q0 7.53.27 11.07l-3.34-.34q-.1-1.42-.44-2.87-1.86 2.74-3.75 2.74-1.85 0-2.96-1.29-1.12-1.28-1.12-3.54 0-4.38.64-10.45l3.92.37q-.61 5.76-.61 9.58 0 1.72 1.08 1.72.5 0 1.21-1.39.74-1.38 1.18-3.34-.03-.74-.03-1.75t.1-6.17zm10.1-.23q4.45 0 4.45 7.42 0 3.91-.44 8.3l-3.95-.37q.37-3.85.37-7.76 0-3.95-1.11-3.95-.54 0-1.38 2.73-.85 2.7-1.05 5.3l.27 5-3.95-.38q-.37-4.76-.37-8.36 0-3.61.2-6.48l2.5.27.5 2.2q1.96-3.92 3.95-3.92zm7.96-.03 3.85.37v16.19l-3.85-.37zm.27-5.94 3.78.44-.34 3.77-3.78-.47zm13.8 6.74.04-4.18q0-2.33-.1-5.3l3.94.34q.07 2.4.07 8.7 0 6.28-.54 16.2l-3-.27q-.1-1.35-.2-3.17-1.46 2.9-3.14 2.9-2.6 0-3.61-1.62-1.01-1.62-1.01-4.7 0-3.1 1.31-6.4 1.35-3.3 3.04-3.3 1.52 0 3.2.8zm.1 3.14q-.84-.64-1.68-.64-.81 0-1.42 2.2-.6 2.15-.6 4.51t1.14 2.36q.44 0 1.18-1.45.74-1.48 1.35-3.74zm6.86 2.2q.5-2.64 1.92-4.46 1.42-1.85 3.71-1.85 2.3 0 3.37 1.92 1.12 1.89 1.12 5.4 0 3.5-.4 9.68l-2.84-.24-.27-1.08q-1.59.91-3.24.91-1.65 0-2.73-1.08-1.08-1.11-1.08-3.17 0-2.06 2.02-3.54 2.06-1.48 4.72-1.55v-.91q0-2.67-1.28-2.67-.64 0-1.18.91-.5.88-.74 2.03zm3 6.23q0 1.08 1.28 1.08.88 0 1.86-.4l.06-2.83q-1.58.13-2.4.8-.8.65-.8 1.35zM523.32 526l.03-4.18q0-2.33-.1-5.3l3.95.34q.07 2.4.07 8.7 0 6.28-.54 16.2l-3-.27q-.1-1.35-.2-3.17-1.46 2.9-3.15 2.9-2.6 0-3.6-1.62-1.02-1.62-1.02-4.7 0-3.1 1.32-6.4 1.35-3.3 3.03-3.3 1.52 0 3.2.8zm.1 3.14q-.84-.64-1.69-.64-.8 0-1.41 2.2-.61 2.15-.61 4.51t1.15 2.36q.43 0 1.18-1.45.74-1.48 1.35-3.74zm30.34-11.6.03 15.68q0 3.88-.27 8.33l-3.78-.37q-4.35-9.88-7.12-14.8.04 4.99.04 15.92l-3.95-.44q-.1-2.1-.1-4.05 0-8.16.91-19.02l4.49.43q3.34 9.21 6 14-.2-10.18-.47-16.05zm3.04 13.8q.5-2.64 1.92-4.46 1.42-1.85 3.71-1.85 2.3 0 3.37 1.92 1.12 1.89 1.12 5.4 0 3.5-.4 9.68l-2.84-.24-.27-1.08q-1.59.91-3.24.91-1.65 0-2.73-1.08-1.08-1.11-1.08-3.17 0-2.06 2.02-3.54 2.06-1.48 4.72-1.55v-.91q0-2.67-1.28-2.67-.64 0-1.18.91-.5.88-.74 2.03zm3 6.23q0 1.08 1.28 1.08.88 0 1.86-.4l.06-2.83q-1.58.13-2.4.8-.8.65-.8 1.35zm18.22-10.38v3.2q-1.62 0-2.5.03-.1 3.38-.1 11.34l-3.98-.37q0-5.9.1-10.7-.5 0-1.92.17l-.5-2.76q.8-.17 2.52-.44.07-2.5.27-7.29l4.02.37q-.2 3.34-.3 6.48.84-.03 2.39-.03zm12.82-1.73-.06 5.33q0 7.53.27 11.07l-3.34-.34q-.1-1.42-.44-2.87-1.86 2.74-3.75 2.74-1.85 0-2.96-1.29-1.12-1.28-1.12-3.54 0-4.38.64-10.45l3.92.37q-.61 5.76-.61 9.58 0 1.72 1.08 1.72.5 0 1.21-1.39.74-1.38 1.18-3.34-.03-.74-.03-1.75t.1-6.17zm9.49 3.65q-1.42 0-2.13 3.57.07 2.36.07 4.52 0 2.16-.14 4.86l-3.9-.34.1-5.46q0-6.24-.61-9.55l2.53.27q.23.98.54 1.72 1.65-3.54 3.33-3.54 1.39 0 2.43 1.22l-.87 3.1q-.54-.37-1.35-.37zm3.65 2.22q.5-2.63 1.92-4.45 1.42-1.85 3.7-1.85 2.3 0 3.38 1.92 1.12 1.89 1.12 5.4 0 3.5-.41 9.68l-2.83-.24-.27-1.08q-1.59.91-3.24.91-1.65 0-2.73-1.08-1.08-1.11-1.08-3.17 0-2.06 2.02-3.54 2.06-1.48 4.72-1.55v-.91q0-2.67-1.28-2.67-.64 0-1.18.91-.5.88-.74 2.03zm3 6.24q0 1.08 1.28 1.08.88 0 1.86-.4l.06-2.83q-1.58.13-2.4.8-.8.65-.8 1.35zm15.22-20.64q-.5 8.53-.5 15.38 0 6.85.16 9.61l-3.98-.37q-.14-3.5-.14-9.95 0-6.47.51-14.97z"/><path fill="#79736a" d="M321.2 412.02q-.1-.32-.24-.32.28.14.28.25 0 .03-.03.07zm27.57-13.85q-1.65.88-1.65 2.14v.1q-.85.57-2.36 1.62l.28.25q.4 0 .53-.25.18.43.18.64-.1 0-.92.38l-.35-.56q-.28.57-1.05.57-1.1 0-1.55.14.17.17.53.17-3.73 1.44-3.73 1.55 0 .03.03.03l-.35-.2q-.14.27-.7.98h-1.83q-1.51 1.79-3.37 1.79-.28 0-.57-.07-3.62.46-3.62 1.51-.42 0-.77-.42-2.46.74-2.46.88h.07q-.63 0-.77-.21-.28.31-.74 1.02-.14-.07-.42-.46-.15.07-.5.07-.38 0-1.02-.07-.17.39-.17.7 0 .4.17.78v-.14q0-.32-.38-.32h-.56q-.46.35-.46.77l-1.2-.14q-.07 0-.98.32-.88.28-1.06.28 0-.04-.45-.25-.32.36-.32.81l-4.74 2.08q-.53 1.72-1.7 4.53l.25 1.58 18.4-1.44h5.3q0 1.1-.14 1.1-.04 0-.07-.08h2.39q-.03.07-.03.14 0 .21.17.6-.42.5-.5.5h-.03q.7.2 1.94.84-.46.8-1.65 1.16l-.28.6q.07.14.14.7v.84q-.21.32-1.1.64l.25.63-7.49 2.53q-.98 0-1.3-.25-.56.46-2.67.78l-1.09 1.23q-.42-.04-.74-.04-.35 0-.52.04-.1-.07-.14-.07-.18.07-.18.45-.1 0-2.22.39-.49.07-.91.07-.88 0-1.34-.39l-5.44 2.18q-.74 0-2.18.67-1.87.85-2.15.95-.25.39-1.02 1.8-.6 2.03-1.27 4.53l-.03 1.37 23.41-1.83q.07 0 .81.21l.78.18h3.37q.74.17 2.85.53l4.43.63q1.09.35 3.23.98 1.02 1.02 3.17 3.06v2.08l-.7.8.49.57q-1.34.52-1.41.7 0 .04.07.04-.07.49-.46 1.58-.24.07-.77.07-.56 0-1.44-.07-.18.2-.18.56-.91.35-1.37.88v-.07q0-.28-.63-.53-.18.04-.42.04-.5 0-1.16-.1-.46-.04-1.2-.15-.77 0-1.48.5l.53.45q-1.09 0-1.4-.14.03-.21.31-.53-.21-.07-.95-.07l.21.6-9.73.21q-1.8.04-2.22.77l-.42-.35h-1.58l-7.28 1.23q-.63 0-.77-.24l-.4.31-.34.25h-1.2q-.24.24-.24.77 0-.31-.21-.53h-.64q-.38.4-.38.57-.57.17-3.45.31-.42.32-1.65.7l-5.56.7h-4l-.46-1.26q-2.92-2.04-3.62-5.13-.46-1.83-.46-4.71.1-.39.77-2.46 1.76-5.2 3.06-10.06-.07-.31-.07-.45.74-1.3.88-2.6-.5-2.36-.53-2.36-.03 0-.03.03v-2.8q.39-.43 1.3-2.47.6-1.3 1.44-1.3.1 0 .21.04l1.8-5.42v-.88l-.32-.38h-1.1q-3.5-3.87-4.17-7.42l1.23-4.71q1.96-1.37 2.07-1.52.1 0 .42.15.35.1.42.1 2.04 0 5.77-1.27.95-.91 2.95-2.53 1.8.99 2.53.99.28-.07 1.2-.21.53-.07.95-.07.42-.04.74.07l14.13-3.03q.63 0 .77.21.14-.2.14-.45l2.57-.42q.77.14 2.53.42 1.02-.56 1.48-.99.31 0 1.09.21l4.36-.87q.24.14 1.72.45.39-.49 1.09-.8.39 0 .39.56-.53.31-1.16.52.14.14.9.14.11-.07 2.08-.6.07.08.07.11-.03.1-.2.21.45.6.56.6.03 0 .03-.03v.8l.77.29q.36-.36 1.1-.36 1.86.46 3.09.46.14.21.14.35 0 .07-.04.1zm15.79 6.85-6.33 55.73q-1.16 0-2.53.56-.4 0-.78-.35l-.45.07q-.46.07-.85.07-.14-.14-1.8-1.48-.27 0-.83.63-.25-.7-.7-1.65-.71-4.78-.71-5.83l2.95-25.42q1.27-10.44 2.89-26.48.28-1.16 1.09-4.07.66-2.46 1.79-3.59l1.51.18q1.02.95 1.9 1.26.2.46 1.72 2.36 1.13 3.4 1.13 4.18z"/><g fill="#6fc4bc"><path d="m471.96 455.75-.39.46.1.32q.15.31.15.52l-1.59 1.27q-2.91.6-3.34.6h.25q0-.04-2.07-.14-.7-.04-1.41-.04-.67-.03-1.3.04-.7.31-1.55.31l-23.55-4-10.4-3.6-8.8-4.07q-.63.39-.63 1.12v3.77l1.16 5.13q-.32.95-.32 1.72 0 .28.04.57l-2.6 3.86q-.25 0-1.13-.35l-.39.53q-.87-.39-3.16-.74-.46-.42-2.32-1.51-1.37-.81-1.37-1.44-.42-1.69-1.1-5.06l.22-10.45 1.51-28.4q-.1-.95-1.54-2.53 0-.53.17-.64v-.03q0-.1-.17-.5-.18-.42-.18-.49 0-.77 2.25-5.34 9.39-7.7 15.71-8.3.29-.35 2.11-1.2 1.83-.87 2-1.05 1.94-.63 5.5-1.82 3.09-.32 4.98-.57l3.48-.45q.7 0 5.38.77.14.1 1.55.8 1.55 1.1 2.92 3.07 1.72 1.26 3.83 4.64l.95 4.57q-.77 2.88-.77 3.59-.7 1.54-1.41 2.35-.46 1.13-1.16 3.13-1.62 2.14-2.95 3.55-.99 1.93-3.17 4.08-3.58 3.58-3.86 4-1.94 1.38-3.38 2.6-1.05 1.59-3.27 2.68-2.32 1.34-7.77 5.38 0 .53.14.56l.07-.03.85.8q6.53 1.94 14.76 3.63 12.45 2.6 16.14 3.48.77.07 1.55.84l4.57 1.62q3.69 2.42 3.69 3.1l1.02.9q0 .15-.85 1.1.39.2.85.52zm-26.8-48.48v-1.12q-1.08-.6-2.8-.6l-2.04.18q-1.97.17-2.64.17-2.74.81-7.14 1.9-3.93 1.72-9.31 3.41-3.41 1.8-3.41 3.73 0 .63.24 1.37-.07.88-.38 2.53l-.78 14.83q8.8-6.5 13.19-10.09 6.71-5.55 10.93-10.65 4.15-5.02 4.15-5.66z"/><use href="#a"/><path d="M557.03 472.35q-.9 7.34-4.5 12.44-.45.63-2.74 3.13-.66.28-2.53 1.93-1.93 1.1-3.62 1.59-1.05.6-3.23 1.9-1.2.42-3.62 1.4l-11.43 1.9-5.59.18q-.21-.07-1.13-.25-1.9-.25-4.85-1.2-2.7-.63-3.55-1.12l-3.86-2.74q-.46-.88-1.8-1.97-2.21-4.96-2.21-5.31v-5.06l2.42-3.66q1.06-.77 3.52-2.39.35.39.35.84 0 .4-.35.92.14.03.42.03.18-.1.18-.63.56-.25 1.9-.56l-.11 1.2-.6.52q.14.32.53 1.37.91-.25 1.12-.25-.35.81-1.3 2.25v.7q.14.15.28.4v.42q0 .91.18 2.6.07.21.7 1.2 2.25 1.75 2.89 2.03 1.26.53 4.88.7l3.17.15q.1 0 1.23-.25l1.2-.21.38.03q.31.07.42.07 1.2 0 4.15-.52 1.72-.85 3.69-1.51 3.34-1.13 6.15-2.68.85-.45 2.32-1.79 5.63-3.62 5.63-13.18l-2.22-13.78-.24-.29h-.78l-9.7 3.1q-.8-.25-2.53-.32-.39.07-.77.07-3.48 0-8.23-2.99-5.56-3.51-5.56-7l.4-1.43q-.15-.46-.15-.92 0-2.53 2.5-5.76 2.32-2.99 4.04-3.34 3.02-1.65 7.07-2.36l6.46-1.02 4.72-.2q2.14.52 4.32 1.15 2.53.7 4.36 2.15v.88q1.65.7 2.1 3.09.25.5.85 1.37-.46 0-.6.14 0 1.27.14 1.34v-.07q-.2-.14-.7-.14l-.31.31 1.72 3.52q.07.14.07.28 0 .18-.07.28.46 3.38 1.69 12.97l.98 7.35zm-47.56.88q-.04.1-.25.17-.07.04-.1.04-.14 0-.21-.1.52 0 .56-.11zm35.68-32.73-3.51-.25-6.93.53q.04 0 .04.03 0 .14-5.6 2.08l-1.15 1.05q0 .18.2.46 3.87.95 5.42.95 2.67 0 6.4-1.3 4.36-1.55 5.13-3.55zm64.83-6.58q-.18 0-.95.39 0 .35-.1.52l.7.7q-1.58.46-3.27 1.17l-6.54-1.4q-1.72.1-4.64.62-3.38 1.16-6.33 1.94-5.52 2.18-10.05 4.29-5.98 2.74-7.53 8.36 0 .22.36 2.82v1.16q-.36.63-.5 1.05-.07.18-.07.35 0 .46.46.74l-3.52 2.25h-.7q-.7-.42-1.9-1.44l-.95.14-1.23-1.82q-.35-.92-.73-1.62l-.43-2.25v-3.06l.07-.39q.1-.35.1-.42v-3.27q0-1.44 1.06-4.89 1.3-4.4 2.89-4.4h1.05l1.23 1.1h.53q.91 0 6.5-3.55 3.87-1.65 11.71-5.1.28 0 3.59-1.44.8-.04 3.27-.6l2.56-.53h3.55q3.73 0 8.69 4.96.17.21.24.84.88.99.88 1.83z"/><use href="#a" x="137.53"/><path d="M687.36 451.43q0 1.62-.81 3.4-.56 1-4.96 2.75-4.67 1.86-7.13 1.86-.21 0-2.71-.35-.6-.1-1.13-.1-.84 0-1.54.24l-3.48-.7h-3.03q-.63 0-2.98-.84-2-.7-2.57-.99-.18-.77-1.02-1.65 0-.39.18-.56l-.36-.35q.18-.78.18-1.44 0-.99-.39-1.66 2.43-1.02 3.17-1.02h2.63l3.63-.49h2.39l5.87-.74q.49-.42.52-.42-.14-.24-.87-.8l-4.12-1.73q-10.37-4.47-11.88-10.1-.21-.87-.63-1.43v-3.8q0-.28.63-1.55.31-3.76 14.27-3.76h-.03q0 .04 6 .78 4.12 1.47 5.5 2.28 2.88 1.69 4.1 4.32 0 .22-.49.99-.52.84-.52 1.05l.14.43-1.9 1.26h-.53q.14 0 .14-.03 0-.18-4.46-1.3-4.5-.6-5.42-.6l-4.99.67q.14.14.14.42.46.28 1.27.84 17.2 6.86 17.2 15.12zm47-9.1q0 2.63-1.61 4.53-.07.31-.43 1.4-1.3 1.62-3.8 4.57-3.9 2.54-7.3 4.68-8.02 2.74-12.2 2.74h-2.36q-.39 0-.88-.31h-.1q-.95 0-5.66-1.34-1.97-1.16-5.49-4.18-.49-1.02-1.68-3.06-1.16-4.19-1.16-6.47l.31-3.3v-5.21q.1-.28.7-2.25.64-2.07.85-2.99.7-1.86 5.41-4.85.78-.25 2.5-.7l1.16-.64q.14.15.42.15l2.04-.64q2-.67 3.52-.67h6.78q1.13 0 2.57.53h.14q2.5 0 9.67 4.57v.7q1.2 1.13 3.16 2.29.7.8 2.99 5.77.46 2.5.46 4.67zm-8.12-2.33v-.91q-2.81-4.6-5.2-4.6-.1 0-.28.1-.14.07-.21.07h-.42q-.64-1.06-3.2-1.06h-.6l-3.87.14-8.65 1.66-.38.6v1.26q0 .39.31 1.1-.1.2-.7.73.32.74.39.84-.67.53-1.1.7-.03 0-.98 1.76-1.02 1.8-1.02 2.25.04.1.18.78 1.05 1.23 3.51 2.28 2.5 1.02 4.36 1.02 4.15-.77 4.89-.77l5.7-2.25q4.14-1.65 5.59-3.02 1.68-1.55 1.68-2.68z"/></g><path fill="#a7a29a" d="M486.4 349.7c1.14-6.68-6.66-12.1-10.7-15.32-11.9-9.48-12.3-10.23-17-31.9A212.86 212.86 0 0 0 453 282c-1.84-5.28-3.24-10.17-3.1-10.85.27-1.45 2.7-2.26 7.1-2.36 2.52-.06 3.45.48 5.33 2.11 4.04 3.52 7.3 14.92 8.07 17.55 1.96-.1 6.25 2.62 8.44 5.72 3.77 5.33 7.06 8.75 13.84 12.93 8.1 5 14.58 11.7 15.67 15.6 1.16 4.16.9 28.14-.29 29.05-.83.65-17 2.72-20.17 3.21-3.03.47-1.78-3.56-1.49-5.27zm18.1-1.67c.06-8 .97-20.4-1.34-25.08-1.79-3.62-7-8.18-14.79-13.19-5.96-3.84-8.32-6.02-12.54-11.58-2.57-3.38-4.36-5.57-6.32-5.42-.78 1.95.96 8.17 2.5 12.31 2.76 7.4 8.52 7.01 10.94 11.65.85 1.62-2.42 4.62-3.54 2.45-1.58-3.04-6.35-4.26-8.69-7.64-3.69-5.33-7.57-16.7-4.4-21.47-1.73-6.71-4.41-19.45-11.32-16.66 0 .1 1.19 3.51 2.64 7.58 2.61 7.3 5 16.57 7.48 28.98 2.19 10.94 3.36 12.86 11.63 19.12 10.03 7.6 14.7 12.19 14.17 20.81 4.63-.55 8.2-1.06 13.58-1.86zm-21.64-24.58c-1.14-1.45 2.15-3.6 3.57-2.14 1.4 1.44 2.27 3.32 3.08 5.08.76 1.63-2.5 3.71-3.28 2.38-.55-.96-1.44-2.87-3.37-5.32zm31.35 28.02c-.82-.22-.78-5.02-.6-14.62.25-12.8.38-13.96 1.99-16.53 2.35-3.8 9.08-9.8 16.28-14.56 4.36-2.88 7.04-5.36 9.82-9.1 2.53-3.38 7.25-8.14 10.61-8.56 1.93-6.54 4.93-14.68 9.24-18.32 1.83-1.55 10.58-1.07 11.04 1.59.14.8-1.6 6.7-3.79 12.2-3.36 8.48-4.13 12.49-6.91 26.99-2.3 11.92-4.16 15.23-13.64 22.72-9.36 7.38-12.3 10.78-11.8 17.08.26 3.43.69 4.69-2.7 4.34-6.5-.67-16.33-2.35-19.54-3.22zm17.18-1.44c.39-10.03 4.8-13.74 13.67-20.32 8.8-6.53 10.39-9.22 11.63-16 2.51-13.78 5.93-27.33 11.1-40.28-7.07-3.47-9.34 9.82-11.48 16.18 2.88 6.09-1.46 18.95-5.68 22.97-4.27 4.07-5.66 3.72-7.47 6.83-1.19 2.05-4.14-.96-3.52-2.34.44-.98 2.07-3.88 5.04-5.31 8.4-4.06 8.97-18.56 8.06-18.94-7.23 3.75-7.1 10.23-18.42 16.89-9.51 5.6-14.86 11.18-15.53 15.06-1.42 8.18-.79 14.8-.8 23.31zm2.4-22.8c.92-2.67 2.27-5.09 3.87-6.47.8-.69 3.72 1.48 3.13 2.35a36.76 36.76 0 0 0-3.26 5.8c-.53 1.21-4.17-.43-3.74-1.67z"/><path fill="#6fc4bc" stroke="#6fc4bc" stroke-width="2" d="M529.25 230.83c-17.88-6.62-31.98 6.35-35.81 23.2-3.3 14.53 4.1 30.7 21.05 25.8 6.97-2 16.6-5.35 18.9-13.16 1.63-5.5-2.14-10.52-6.13-13.83-6.84-5.7-24.6-9.99-22.89 4.35.3 2.47 1.38 4.8 2.5 6.98 1.3 2.55 5.07.74 4-1.9-2.5-6.07-3-12.01 5.25-9.97 5.21 1.3 11.9 5.24 13.01 10.94 1.62 8.3-15.32 13.02-20.91 13.2-8.8.28-11.4-9-11.2-16.15.2-8.69 4.06-17.64 10.83-23.17 8.63-7.06 22.08-3.9 29.5 3.4 16.52 16.26-.06 45.46-17.99 52.17-42.63 15.96-56.65-62.68-15.55-70.03.3-.06.21-.51-.09-.47-34.47 4.03-35.69 59.45-7.47 73.2 37.85 18.44 74.56-49.17 33-64.56z"/></g><defs><path id="a" d="M514.4 451.43q-.47.63-1.24 2.1-.5 0-.74-.2-.38.14-1.2.63.78.32 2.01 1.02-.46.14-1.93 1.48-1.48.52-4.47 1.2-.91.55-1.26 1.57l-8.97 1.13q-9.63-.63-15.36-4.36-4.15-4.25-5.2-9.74-.4-.77-.4-1.23 0-3.44 2.96-8.33 3.3-5.38 7.28-7 .21-.1 1.16-.1 1.69-1.44 5.94-2.5 3.76-.91 6.47-.91 2.35 0 5.41 1.72-.07.14-.07.85.67.14 1.58.38 0 .21.46.7 0 1.3.99 3.38v1.55q0 .28-.43.7.25.35.25.77 0 .78-.67 1.76-.07.5-.14 1.4-.8 1.1-2.04 3.28l-7.63 5.52q1.13.67 6.2.8l8.92.22q.6 1.02 2.11 2.21zm-16.81-15.75.03.03q-.07 0-.28-.6-2.74 1.1-3.66 1.59-2.6 1.37-3.51 2.92.24 0 .52.24 4.9-1.86 6.9-4.18z"/></defs></svg>